<svg xmlns="http://www.w3.org/2000/svg" viewBox="0 0 505.09 406.22"><title>mugiwara [Recovered]</title><g id="Layer_1" data-name="Layer 1"><path d="M413.24,170.12l61.93-33.27c8.64-4.64,11.33-16.49,6-26.43l-1.77-3.29c-5.33-9.93-16.7-14.23-25.34-9.59L393.3,130.18c-19.68-22.83-39.38-42.85-59.11-56.69A184.22,184.22,0,0,0,258,44.4c-33.39-4.52-66.17,1.21-94.81,16.6S111.63,100.55,97,130.88c-11.87,24.56-17.92,52.2-17.83,80.82a341.14,341.14,0,0,0,13.28,80.1L36.24,322c-8.64,4.64-11.33,16.5-6,26.43L32,351.69c5.34,9.93,16.71,14.24,25.35,9.6l58.7-31.54" fill="#1d1d1b"/><path d="M459.22,107.16,41.41,331.59c-4,2.17-5.28,7.68-2.79,12.32l1.76,3.29c2.49,4.63,7.78,6.63,11.81,4.47l348-186.91-.08-.12.28-.15.06.13L470,127.23c4-2.16,5.28-7.68,2.79-12.31L471,111.63C468.54,107,463.26,105,459.22,107.16Z" fill="#ffcf00"/><path d="M140.84,202l15.87-8.52,116.46-62.56,19.68-10.57,34.33-18.44,16.92-9.09C292.51,51.49,224.3,40.55,168.32,70.62s-84.52,93-78.59,158.79l16.93-9.1Z" fill="#ffcf00"/><path d="M121.68,275.61l4.34-2.34,28.35-15.22,13.34-7.17,148-79.5,14.9-8,26.07-14,8.15-4.38,13.63-7.32,4.91-2.64a199.26,199.26,0,0,0-29.86-34.21l-13.72,7.37-28,15.06-15.17,8.15L144.22,213.25l-11.36,6.1-27.9,15-13.72,7.37a199.68,199.68,0,0,0,12,43.78l4.91-2.64Z" fill="#e20613"/><path d="M400.4,164.62l-.06-.13-.28.15.08.12Z" fill="#ffcf00"/></g></svg>