<svg xmlns="http://www.w3.org/2000/svg" viewBox="0 0 646.94 646.94"><title>mugiwara [Recovered]</title><g style="isolation:isolate"><g id="Layer_1" data-name="Layer 1"><rect x="334.43" y="391.51" width="243.57" height="210.94" rx="3.6" fill="#fff" stroke="#141d29" stroke-miterlimit="10" stroke-width="8"/><circle cx="180.8" cy="151.57" r="84.94" transform="translate(-7.74 293.4) rotate(-76.93)" fill="#627eea" stroke="#141d29" stroke-miterlimit="10" stroke-width="6"/><path d="M183.44,87.86V135l39.8,17.79Z" fill="#fff" fill-opacity="0.6"/><path d="M183.44,87.86l-39.81,64.88L183.44,135Z" fill="#fff"/><path d="M183.44,183.25v32l39.83-55.1Z" fill="#fff" fill-opacity="0.6"/><path d="M183.44,215.25v-32l-39.81-23.1Z" fill="#fff"/><path d="M183.44,175.85l39.8-23.11L183.44,135Z" fill="#fff" fill-opacity="0.2"/><path d="M143.63,152.74l39.81,23.11V135Z" fill="#fff" fill-opacity="0.6"/><g opacity="0.5"><path d="M98.13,260.75c.08,0,.1.05.12,0l0,0c.07,0,.1,0,.13,0s-.19,0-.4-.06a1,1,0,0,1-.21-.09h.13a.27.27,0,0,1,.14,0S98.1,260.72,98.13,260.75Zm.68.14a.48.48,0,0,1-.19-.08.18.18,0,0,0-.09,0,.4.4,0,0,1,.28,0s.1.06.13.07l0,.05S98.84,260.89,98.81,260.89Z" fill="#3f3f3f"/></g><polygon points="374.12 150.58 370.99 151.57 366.95 147.87 370.08 146.88 374.12 150.58" fill="#3f3f3f"/><path d="M442,124.4l-1.2,5.36-3.24,14.4-.29-.14,3.2-14.16,1.2-5.34Z" fill="#3f3f3f"/><path d="M536.43,353.4q0,6.27-.29,12.55c0,.41,0,.82,0,1.23-.34,1.54-.6,3.1-1,4.64.17-1.78.29-3.59.41-5.36s.21-3.59.29-5.37a250.26,250.26,0,0,0-.41-29.64C536.09,338.71,536.4,346,536.43,353.4Z" fill="#3f3f3f"/><g style="mix-blend-mode:multiply"><path d="M442,124.4l-1.2,5.36-3.24,14.4-.29-.14,3.2-14.16,1.2-5.34Z" fill="#3f3f3f"/><polygon points="374.12 150.58 370.99 151.57 366.95 147.87 370.08 146.88 374.12 150.58" fill="#3f3f3f"/><path d="M535.56,368.38c.19-.82.39-1.61.58-2.43,0,.41,0,.82,0,1.23-.34,1.54-.6,3.1-1,4.64.17-1.78.29-3.59.41-5.36s.21-3.59.29-5.37a250.26,250.26,0,0,0-.41-29.64c.67,7.26,1,14.57,1,21.95Q536.2,360.87,535.56,368.38Z" fill="#3f3f3f"/></g><g style="mix-blend-mode:screen"><path d="M536.43,353.4q0,6.27-.29,12.55c0,.41,0,.82,0,1.23-.34,1.54-.6,3.1-1,4.64.17-1.78.29-3.59.41-5.36s.21-3.59.29-5.37a264,264,0,0,0-.89-34.83c.09.86.19,1.73.26,2.59s.15,1.74.22,2.6C536.09,338.71,536.4,346,536.43,353.4Z" fill="#3f3f3f"/><polygon points="374.12 150.58 370.99 151.57 366.95 147.87 370.08 146.88 374.12 150.58" fill="#3f3f3f"/><polygon points="442.01 124.4 440.81 129.76 440.48 129.86 441.68 124.52 442.01 124.4" fill="#3f3f3f"/></g><path d="M78.43,306.42a205.31,205.31,0,0,1-1-24.38c0-2.38.14-4.73.28-7.11.08-1.3.17-2.6.27-3.87.07.91.14,1.85.22,2.76.07.75.12,1.52.19,2.26-.19,2.65-.34,5.29-.43,7.94A201.91,201.91,0,0,0,78.43,306.42Z" fill="#3f3f3f"/><path d="M168.51,452.94c4,2.64,8.1,5.19,12.29,7.59C176.61,458.13,172.53,455.6,168.51,452.94Z" fill="#3f3f3f"/><polygon points="276.89 472.5 273.26 473.68 270.59 471.28 274.2 470.1 276.89 472.5" fill="#3f3f3f"/><g style="mix-blend-mode:multiply"><polygon points="276.89 472.5 273.26 473.68 270.59 471.28 274.2 470.1 276.89 472.5" fill="#3f3f3f"/><path d="M78.43,306.42a205.31,205.31,0,0,1-1-24.38c0-2.38.14-4.73.28-7.11.08-1.3.17-2.6.27-3.87,0,.69.17,1.39.24,2.09,0,.21,0,.46,0,.67C78,277.21,78,280.6,78,284A201.91,201.91,0,0,0,78.43,306.42Z" fill="#3f3f3f"/></g><g style="mix-blend-mode:screen"><path d="M274.2,470.1l-3.61,1.18,2.67,2.4L202.17,497l.75-3.53,4.13-19.72a.9.9,0,0,1-.24-.12,251.92,251.92,0,0,1-26-13.08c-4.19-2.4-8.27-4.95-12.29-7.59s-8-5.51-11.85-8.42c-18-13.8-34-29.57-47.12-48a179.39,179.39,0,0,1-26.45-61A215.38,215.38,0,0,1,77.42,282a205.31,205.31,0,0,0,1,24.38A201.91,201.91,0,0,1,78,284c.09-2.65.24-5.29.43-7.94.07.55.12,1.08.17,1.61a209.78,209.78,0,0,0,13.7,54.91c7.74,19.41,18.58,37.32,32.31,51.94a222.67,222.67,0,0,0,47,38.13A211.37,211.37,0,0,0,213.71,442l4.62-22Z" fill="#3f3f3f"/><path d="M540.85,338.62c-.14,1.39-.31,2.81-.48,4.2s-.36,2.79-.55,4.19c-.39,2.78-.82,5.57-1.3,8.34-.24,1.37-.48,2.76-.75,4.13s-.48,2.53-.74,3.78c-.58,2.86-1.23,5.72-1.9,8.56.36-1.54.62-3.1,1-4.64,0-.41,0-.82,0-1.23q.29-6.27.29-12.55c0-7.38-.34-14.69-1-21.95-.07-.86-.12-1.73-.22-2.6q-.87-11.13-2.74-22c-3.65-21.06-10.43-41.69-21.64-58.25-11.51-17.26-25.43-33.11-41.42-45.68a166.91,166.91,0,0,0-39.77-23.4l-4.83,21.62L371,151.57l3.13-1-4-3.7,71.6-22.36-1.2,5.34L437.28,144l.29.14,3.24-14.4-4,17.7A198.33,198.33,0,0,1,461,161.57c1,.7,2.06,1.42,3.1,2.14s2,1.47,3.05,2.21,2,1.49,3,2.26l2.95,2.31c1,.79,1.95,1.59,2.91,2.38,1.88,1.56,3.73,3.15,5.53,4.76s3.75,3.46,5.58,5.24A212.34,212.34,0,0,1,528,238.79c.55,1.18,1.1,2.38,1.61,3.56.26.6.53,1.2.77,1.8.43,1,.86,2.1,1.27,3.15s.72,1.86,1,2.79c.21.56.41,1.11.6,1.66q1.77,5.13,3.15,10.29c.31,1.13.6,2.24.86,3.37a189.6,189.6,0,0,1,5,40.48A260.07,260.07,0,0,1,540.85,338.62Z" fill="#3f3f3f"/><path d="M78,284a201.91,201.91,0,0,0,.48,22.4,205.31,205.31,0,0,1-1-24.38c0-2.38.14-4.73.28-7.11.08-1.3.17-2.6.27-3.87.07.91.14,1.85.22,2.76.07.75.12,1.52.19,2.26C78.19,278.73,78,281.37,78,284Z" fill="#3f3f3f"/><path d="M78.55,277.69c0-.53-.1-1.06-.17-1.61a.62.62,0,0,0,0-.19Z" fill="#3f3f3f"/><polygon points="276.89 472.5 273.26 473.68 270.59 471.28 274.2 470.1 276.89 472.5" fill="#3f3f3f"/></g><path d="M520.91,449.76a9.27,9.27,0,0,0-6.48-2.84,9.17,9.17,0,0,0-1.5-5.24,10.08,10.08,0,0,0-1.08-1.36A9.24,9.24,0,0,0,498,452.47l-10.3,9.9A38.8,38.8,0,0,0,475.4,450a39.46,39.46,0,0,0-42,0,38.72,38.72,0,0,0-12.38,12.54l-11-10.55a9.25,9.25,0,0,0-.84-12.41,9.25,9.25,0,0,0-13.06.26,10.34,10.34,0,0,0-1.08,1.37,9.21,9.21,0,0,0-1.49,5.23,9.26,9.26,0,0,0-5.64,2.06,10.62,10.62,0,0,0-.85.78A9.24,9.24,0,0,0,399.48,463L415,477.93H400.4a4.08,4.08,0,0,0-4.08,4.08v.74a4.09,4.09,0,0,0,4.08,4.09h15.3a9.7,9.7,0,0,0,.17,1.22,3.94,3.94,0,0,1,.1.85l1.08.28-1,.19c2.29,11.42,8.27,19.48,15.78,24.56l-20.17,18.5A9.24,9.24,0,0,0,399,545.82a10.58,10.58,0,0,0,.83.8,9.25,9.25,0,0,0,5.58,2.19,9.21,9.21,0,0,0,1.38,5.27,9.47,9.47,0,0,0,1.05,1.38A9.24,9.24,0,0,0,422,543.64l7.16-6.58c1.25,9,6.34,16,13.88,18.66a31.88,31.88,0,0,0,11.1,2,27.62,27.62,0,0,0,16.5-5.13A20.83,20.83,0,0,0,479,537.86l6.72,6.07a9.24,9.24,0,0,0,7.39,14.76h.49a9.14,9.14,0,0,0,6.38-3,8.92,8.92,0,0,0,1-1.4,9.29,9.29,0,0,0,1.34-5.28,9.16,9.16,0,0,0,5.56-2.23,10.58,10.58,0,0,0,.83-.8,9.23,9.23,0,0,0-.67-13.05h0a9.25,9.25,0,0,0-12.11-.24l-20-18.1c8.63-5.41,15.43-14.5,17.17-27.63l0-.08h16.14a4.09,4.09,0,0,0,4.08-4.09V482a4.08,4.08,0,0,0-4.08-4.08H493.45l15.1-14.5a9.24,9.24,0,0,0,12.36-13.67Z" fill="#1d1d1b"/><path d="M509.29,480.11H400.4a1.9,1.9,0,0,0-1.9,1.9v.74a1.9,1.9,0,0,0,1.9,1.91h90.68v0h.07v0h18.14a1.9,1.9,0,0,0,1.9-1.91V482A1.9,1.9,0,0,0,509.29,480.11Z" fill="#ffcf00"/><path d="M434.59,466.69h53a37,37,0,0,0-66.3,0h13.32Zm39.75-9.39a.93.93,0,0,1,1.34,0,14.7,14.7,0,0,1,4.48,7.38c0,.64-.1,1.11-.69,1.28a.94.94,0,0,1-1.3-.63,16.46,16.46,0,0,0-3.89-6.54A1,1,0,0,1,474.34,457.3Zm-5.6,2.51a1,1,0,0,1,1.43.28,10.1,10.1,0,0,1,1.59,4.15c0,.65-.17,1.15-.82,1.27a1,1,0,0,1-1.29-.88,11.5,11.5,0,0,0-1.29-3.42A1,1,0,0,1,468.74,459.81Zm-27,3.23a7.12,7.12,0,0,1,1.6-2.61,1,1,0,0,1,1.23-.12c.39.2.58.52.58,1.21-.55.81-1.2,1.84-2,2.79-.23.31-.74.19-1.08-.07A1.08,1.08,0,0,1,441.75,463Zm-1.64-4.56a1.05,1.05,0,0,1,.13,1.66,22.25,22.25,0,0,0-3,4.86,1,1,0,0,1-.25.36.34.34,0,0,1-.09.08l-.07.06h0a1,1,0,0,1-.56.17,1,1,0,0,1-.94-.63,1,1,0,0,1-.07-.39v-.05h0a6,6,0,0,1,1.13-2.7,37.41,37.41,0,0,1,2.18-3.14A1,1,0,0,1,440.11,458.48Zm-10.88,4.13a27.73,27.73,0,0,1,5.49-6.67,1,1,0,0,1,1.35,0,.92.92,0,0,1,.14,1.34,51.76,51.76,0,0,0-5.43,6.75c-.12.18-.41.24-.54.3A1.1,1.1,0,0,1,429.23,462.61Z" fill="#ffcf00"/><path d="M422.72,477.84h68.2A35.85,35.85,0,0,0,488.6,469H420.24a35.85,35.85,0,0,0-2.32,8.84h4.8Z" fill="#e20613"/><path d="M445.27,536.25a45.36,45.36,0,0,0,8.06,1v-6.81a40.34,40.34,0,0,1-10.45-1.52l-1,6.41C443,535.67,444.11,536,445.27,536.25Z" fill="#fff"/><path d="M431.26,530a37.58,37.58,0,0,0,8.71,4.69l1-6.34a38.29,38.29,0,0,1-9.08-4.51A24.24,24.24,0,0,0,431.26,530Z" fill="#fff"/><path d="M455.3,530.4v6.82a39.77,39.77,0,0,0,10.13-1.57c-.12-.78-.85-6-1-6.62A40.6,40.6,0,0,1,455.3,530.4Z" fill="#fff"/><path d="M466.55,526.28a38,38,0,0,0,8.94-4.16,23.33,23.33,0,0,0-2.64-5.73,42.59,42.59,0,0,1-7.78,3.05l1,7Z" fill="#fff"/><path d="M455.3,528.13a39.38,39.38,0,0,0,8.87-1.18c-.32-2.34-.69-4.69-1-7a39.93,39.93,0,0,1-7.85.93C455.15,522.47,455.37,526.42,455.3,528.13Z" fill="#fff"/><path d="M444.22,526.85a36.2,36.2,0,0,0,9.11,1.28v-3.65h0c0-1.21,0-2.43,0-3.63h-.27c-2.83-.46-5.88-.4-8.69-1.24l-1.12,7C443.57,526.68,443.89,526.76,444.22,526.85Z" fill="#fff"/><path d="M467.39,528.12l-1,.34.95,6.59a31.23,31.23,0,0,0,9.52-4.88c-.29-2.12-.41-4.33-.9-6.39A38.06,38.06,0,0,1,467.39,528.12Z" fill="#fff"/><path d="M433.29,522.12a38.36,38.36,0,0,0,8.06,3.86c.16-1,1-6,1.11-6.92a38.69,38.69,0,0,1-7.21-3.07,24.15,24.15,0,0,0-2.73,5.62C432.77,521.78,433,521.94,433.29,522.12Z" fill="#fff"/><path d="M488.86,486.64h-71a9.84,9.84,0,0,1,.21,2.8c0-.16.09-.32.13-.49,8.14,40.71,67.3,38.84,72.76-2.31Zm-49,22.4c-12.21-.07-14.1-19.66-.89-20.4C452.46,488.78,453.66,507.85,439.89,509ZM456.54,514c-2.64,1.57-7.1-.66-5.7-3.55C453,505.8,462.31,510.24,456.54,514Zm13-5.16c-13.39.48-13.85-19.86-.46-20C482.56,488.58,482,508.89,469.5,508.83Z" fill="#fff"/><path d="M406.93,452a8.29,8.29,0,0,0,1-.87,7.06,7.06,0,0,0-10.18-9.78,6.84,6.84,0,0,0-.83,1.05,7.05,7.05,0,0,0-.52,6.73,7.07,7.07,0,0,0-7.06,1.06,7.45,7.45,0,0,0-.65.6,7.06,7.06,0,0,0,10.18,9.78c.2-.22.39-.45.57-.68l16.27,15.62a38.83,38.83,0,0,1,3.75-11.47Z" fill="#fff"/><path d="M519.34,451.27c-.21-.22-.43-.41-.65-.6a7.05,7.05,0,0,0-7.06-1.06,7.07,7.07,0,0,0-.53-6.74,7.2,7.2,0,0,0-.82-1,7.06,7.06,0,0,0-10.18,9.78,6.86,6.86,0,0,0,1,.86l-11.85,11.38a39.25,39.25,0,0,1,3.82,11.41l15.51-14.89a6,6,0,0,0,.57.67,7.05,7.05,0,1,0,10.18-9.77Z" fill="#fff"/><path d="M491.15,484.66v0h-.07v0Z" fill="#ffcf00"/><path d="M506.65,534.51a7,7,0,0,0-10,.51,5.94,5.94,0,0,0-.55.69l-17.79-16.05-2.5-2.27A40.48,40.48,0,0,1,479,528.81a39.65,39.65,0,0,1,.29,6.31l.26.24,9.39,8.47a6.38,6.38,0,0,0-1,.9,7.06,7.06,0,0,0,10.47,9.46,7.27,7.27,0,0,0,.8-1.07,7.1,7.1,0,0,0,.31-6.75,7.06,7.06,0,0,0,7-1.28,6.13,6.13,0,0,0,.63-.62A7.05,7.05,0,0,0,506.65,534.51Z" fill="#fff"/><path d="M429,530a40.06,40.06,0,0,1,2.87-13.1l-2,1.85L411.57,535.5a7.23,7.23,0,0,0-.55-.69,7.06,7.06,0,0,0-10.41,9.54c.21.22.42.42.64.61a7.09,7.09,0,0,0,7,1.23,7.06,7.06,0,0,0,.36,6.74,6.77,6.77,0,0,0,.81,1.06,7.06,7.06,0,0,0,10.4-9.54,7.51,7.51,0,0,0-1-.89l9.65-8.85.51-.47A40.73,40.73,0,0,1,429,530Z" fill="#fff"/><path d="M431.07,532.88c.06,8.91,4,17.74,12.73,20.79,15.12,5.62,34.39-1.65,33.15-20.28a44.07,44.07,0,0,1-45.88-.51Z" fill="#fff"/></g></g></svg>